<svg xmlns="http://www.w3.org/2000/svg" width="40" height="40" viewBox="0 0 40 40">
  <g id="filter" transform="translate(-1450 -92)">
    <g id="base" transform="translate(1450 92)" fill="none" stroke="#ebeded" stroke-width="2">
      <rect width="40" height="40" rx="6" stroke="none"/>
      <rect x="1" y="1" width="38" height="38" rx="5" fill="none"/>
    </g>
    <g id="filter-2" data-name="filter" transform="translate(1462 104)">
      <path id="filter-3" data-name="filter" d="M16,1V3H5.7A1.945,1.945,0,0,1,2.3,3H0V1H2.3A1.945,1.945,0,0,1,5.7,1ZM12,6a1.936,1.936,0,0,0-1.7,1H0V9H10.3a1.945,1.945,0,0,0,3.4,0H16V7H13.7A1.936,1.936,0,0,0,12,6ZM8,12a1.936,1.936,0,0,0-1.7,1H0v2H6.3a1.945,1.945,0,0,0,3.4,0H16V13H9.7A1.936,1.936,0,0,0,8,12Z" fill="#575f66"/>
    </g>
  </g>
</svg>
